<svg id="Layer_1" xmlns="http://www.w3.org/2000/svg" viewBox="0 0 40 40"><style>.st0{fill:#FFFFFF;}</style><path class="st0" d="M20 0C9 0 0 8.9 0 20s9 20 20 20 20-9 20-20S31 0 20 0m-7.2 30.2c0 1.1-.9 2-2 2s-2-.9-2-2V17.8c0-1.1.9-2 2-2s2 .9 2 2v12.4zm0-19.6c0 1.1-.9 2-2 2s-2-.9-2-2V8.9c0-1.1.9-2 2-2s2 .9 2 2v1.7zm12.9 22.3c-1.9 0-3.6-.6-5-1.7-.4.5-.9.9-1.6.9-1.1 0-2-.9-2-2V8.9c0-1.1.9-2 2-2s2 .9 2 2v16.4c.4 2.2 2.4 3.9 4.7 3.9 2.6 0 4.8-2.2 4.8-4.8 0-2.4-1.8-4.5-4.3-4.8-1-.1-1.8-1-1.6-2.1.1-1 1-1.8 2.1-1.6 4.3.5 7.6 4.1 7.6 8.5-.2 4.7-4 8.5-8.7 8.5"/></svg>