<?xml version="1.0" encoding="utf-8"?>
<!-- Generator: Adobe Illustrator 19.1.0, SVG Export Plug-In . SVG Version: 6.00 Build 0)  -->
<svg version="1.1" id="Layer_1" xmlns="http://www.w3.org/2000/svg" xmlns:xlink="http://www.w3.org/1999/xlink" x="0px" y="0px"
	 viewBox="0 0 40 40" style="enable-background:new 0 0 40 40;" xml:space="preserve">
<style type="text/css">
	.st0{fill:#FFFFFF;}
</style>
<path class="st0" d="M20,0C9,0,0,8.9,0,20s9,20,20,20s20-9,20-20S31,0,20,0 M12.8,30.2c0,1.1-0.9,2-2,2s-2-0.9-2-2V17.8
	c0-1.1,0.9-2,2-2s2,0.9,2,2V30.2z M12.8,10.6c0,1.1-0.9,2-2,2s-2-0.9-2-2V8.9c0-1.1,0.9-2,2-2s2,0.9,2,2V10.6z M25.7,32.9
	c-1.9,0-3.6-0.6-5-1.7c-0.4,0.5-0.9,0.9-1.6,0.9c-1.1,0-2-0.9-2-2V8.9c0-1.1,0.9-2,2-2c1.1,0,2,0.9,2,2v16.4
	c0.4,2.2,2.4,3.9,4.7,3.9c2.6,0,4.8-2.2,4.8-4.8c0-2.4-1.8-4.5-4.3-4.8c-1-0.1-1.8-1-1.6-2.1c0.1-1,1-1.8,2.1-1.6
	c4.3,0.5,7.6,4.1,7.6,8.5C34.2,29.1,30.4,32.9,25.7,32.9"/>
</svg>
